<mxfile host="65bd71144e">
    <diagram id="oTEY8CWjEPopYMgaoNUj" name="Class Diagram">
        <mxGraphModel dx="790" dy="576" grid="1" gridSize="10" guides="1" tooltips="1" connect="1" arrows="1" fold="1" page="1" pageScale="1" pageWidth="850" pageHeight="1100" math="0" shadow="0">
            <root>
                <mxCell id="0"/>
                <mxCell id="1" parent="0"/>
                <mxCell id="2" value="User&#xa;- id: int&#xa;- username: str&#xa;- email: str" style="shape=umlClass;whiteSpace=wrap;html=1;" vertex="1" parent="1">
                    <mxGeometry x="100" y="130" width="160" height="90" as="geometry"/>
                </mxCell>
                <mxCell id="3" value="Server&#xa;- id: int&#xa;- hostname: str&#xa;- ip_address: str" style="shape=umlClass;whiteSpace=wrap;html=1;" vertex="1" parent="1">
                    <mxGeometry x="300" y="130" width="180" height="90" as="geometry"/>
                </mxCell>
                <mxCell id="4" value="Metric&#xa;- id: int&#xa;- name: str&#xa;- value: float&#xa;- timestamp: datetime" style="shape=umlClass;whiteSpace=wrap;html=1;" vertex="1" parent="1">
                    <mxGeometry x="300" y="280" width="200" height="100" as="geometry"/>
                </mxCell>
                <mxCell id="5" value="Alert&#xa;- id: int&#xa;- type: str&#xa;- message: str&#xa;- severity: str&#xa;- triggered_at: datetime" style="shape=umlClass;whiteSpace=wrap;html=1;" vertex="1" parent="1">
                    <mxGeometry x="550" y="280" width="200" height="110" as="geometry"/>
                </mxCell>
                <mxCell id="6" style="endArrow=block;startArrow=none;" edge="1" parent="1" source="2" target="3">
                    <mxGeometry relative="1" as="geometry"/>
                </mxCell>
                <mxCell id="7" style="endArrow=block;startArrow=none;" edge="1" parent="1" source="3" target="4">
                    <mxGeometry relative="1" as="geometry"/>
                </mxCell>
                <mxCell id="8" style="endArrow=block;startArrow=none;" edge="1" parent="1" source="4" target="5">
                    <mxGeometry relative="1" as="geometry"/>
                </mxCell>
            </root>
        </mxGraphModel>
    </diagram>
</mxfile>